<svg width="19" height="19" viewBox="0 0 19 19" fill="none" xmlns="http://www.w3.org/2000/svg">
<path d="M9.5 0.75C7.76942 0.75 6.07769 1.26318 4.63876 2.22464C3.19983 3.1861 2.07832 4.55267 1.41606 6.15152C0.753791 7.75037 0.580512 9.50971 0.918133 11.207C1.25575 12.9044 2.08911 14.4635 3.31282 15.6872C4.53653 16.9109 6.09563 17.7442 7.79296 18.0819C9.4903 18.4195 11.2496 18.2462 12.8485 17.5839C14.4473 16.9217 15.8139 15.8002 16.7754 14.3612C17.7368 12.9223 18.25 11.2306 18.25 9.5C18.25 8.35093 18.0237 7.21312 17.584 6.15152C17.1442 5.08992 16.4997 4.12533 15.6872 3.31282C14.8747 2.5003 13.9101 1.85578 12.8485 1.41605C11.7869 0.976325 10.6491 0.75 9.5 0.75ZM9.5 16.5C8.11553 16.5 6.76216 16.0895 5.61101 15.3203C4.45987 14.5511 3.56266 13.4579 3.03285 12.1788C2.50303 10.8997 2.36441 9.49223 2.63451 8.13437C2.9046 6.7765 3.57129 5.52922 4.55026 4.55025C5.52922 3.57128 6.7765 2.9046 8.13437 2.6345C9.49224 2.36441 10.8997 2.50303 12.1788 3.03284C13.4579 3.56266 14.5511 4.45986 15.3203 5.61101C16.0895 6.76215 16.5 8.11553 16.5 9.5C16.5 11.3565 15.7625 13.137 14.4498 14.4497C13.137 15.7625 11.3565 16.5 9.5 16.5ZM13 8.625H10.375V6C10.375 5.76794 10.2828 5.54538 10.1187 5.38128C9.95463 5.21719 9.73207 5.125 9.5 5.125C9.26794 5.125 9.04538 5.21719 8.88129 5.38128C8.71719 5.54538 8.625 5.76794 8.625 6V8.625H6C5.76794 8.625 5.54538 8.71719 5.38129 8.88128C5.21719 9.04538 5.125 9.26793 5.125 9.5C5.125 9.73206 5.21719 9.95462 5.38129 10.1187C5.54538 10.2828 5.76794 10.375 6 10.375H8.625V13C8.625 13.2321 8.71719 13.4546 8.88129 13.6187C9.04538 13.7828 9.26794 13.875 9.5 13.875C9.73207 13.875 9.95463 13.7828 10.1187 13.6187C10.2828 13.4546 10.375 13.2321 10.375 13V10.375H13C13.2321 10.375 13.4546 10.2828 13.6187 10.1187C13.7828 9.95462 13.875 9.73206 13.875 9.5C13.875 9.26793 13.7828 9.04538 13.6187 8.88128C13.4546 8.71719 13.2321 8.625 13 8.625Z" fill="white"/>
</svg>
