<svg width="6" height="3" viewBox="0 0 6 3" fill="none" xmlns="http://www.w3.org/2000/svg">
<path d="M3.76642 2.82655L5.88517 0.704047C5.92032 0.669186 5.94822 0.627711 5.96725 0.582014C5.98629 0.536316 5.99609 0.487302 5.99609 0.437797C5.99609 0.388293 5.98629 0.339278 5.96725 0.293581C5.94822 0.247884 5.92032 0.206408 5.88517 0.171547C5.81491 0.101703 5.71986 0.0625 5.62079 0.0625C5.52172 0.0625 5.42668 0.101703 5.35642 0.171547L3.48142 2.0278L1.62517 0.171547C1.55491 0.101703 1.45986 0.0624998 1.36079 0.0624998C1.26172 0.0624998 1.16668 0.101703 1.09642 0.171547C1.06099 0.206277 1.0328 0.247694 1.01349 0.293398C0.994175 0.339101 0.984126 0.388182 0.98392 0.437797C0.984126 0.487412 0.994175 0.536493 1.01349 0.582196C1.0328 0.6279 1.06099 0.669317 1.09642 0.704047L3.21517 2.82655C3.25028 2.86461 3.2929 2.89499 3.34034 2.91577C3.38778 2.93655 3.43901 2.94727 3.49079 2.94727C3.54258 2.94727 3.59381 2.93655 3.64125 2.91577C3.68868 2.89499 3.7313 2.86461 3.76642 2.82655Z" fill="#2C4D58"/>
</svg>
