<svg width="16" height="17" viewBox="0 0 16 17" fill="none" xmlns="http://www.w3.org/2000/svg">
<path d="M10.7745 9.06746C11.5101 8.45074 12.0471 7.60504 12.3107 6.64801C12.5742 5.69097 12.5513 4.6702 12.245 3.72771C11.9388 2.78521 11.3645 1.96786 10.602 1.38937C9.83948 0.810873 8.92672 0.5 7.99069 0.5C7.05466 0.5 6.14191 0.810873 5.37941 1.38937C4.61691 1.96786 4.04259 2.78521 3.73635 3.72771C3.4301 4.6702 3.40717 5.69097 3.67073 6.64801C3.93429 7.60504 4.47124 8.45074 5.20688 9.06746C3.94635 9.60558 2.84648 10.4981 2.02455 11.6499C1.20262 12.8017 0.689425 14.1696 0.539682 15.6077C0.528843 15.7127 0.537519 15.8189 0.565213 15.9204C0.592908 16.0218 0.63908 16.1164 0.701092 16.1988C0.826331 16.3652 1.00849 16.4718 1.2075 16.4952C1.4065 16.5185 1.60605 16.4566 1.76225 16.3232C1.91845 16.1897 2.0185 15.9956 2.04039 15.7836C2.20516 14.2206 2.90456 12.7772 4.00498 11.729C5.1054 10.6807 6.52968 10.1013 8.0057 10.1013C9.48172 10.1013 10.906 10.6807 12.0064 11.729C13.1068 12.7772 13.8062 14.2206 13.971 15.7836C13.9914 15.98 14.0794 16.1615 14.218 16.2929C14.3565 16.4243 14.5359 16.4964 14.7214 16.4952H14.8039C15.0006 16.4711 15.1804 16.3651 15.3041 16.2003C15.4277 16.0356 15.4853 15.8254 15.4642 15.6157C15.3138 14.1735 14.7978 12.8021 13.9716 11.6485C13.1455 10.495 12.0403 9.60273 10.7745 9.06746V9.06746ZM7.99069 8.49978C7.39707 8.49978 6.81678 8.31222 6.3232 7.9608C5.82962 7.60938 5.44492 7.1099 5.21775 6.52551C4.99058 5.94112 4.93114 5.29808 5.04695 4.6777C5.16276 4.05732 5.44862 3.48746 5.86837 3.04019C6.28813 2.59292 6.82293 2.28833 7.40515 2.16492C7.98736 2.04152 8.59085 2.10486 9.13929 2.34692C9.68772 2.58898 10.1565 2.99889 10.4863 3.52483C10.8161 4.05076 10.9921 4.66909 10.9921 5.30163C10.9921 6.14983 10.6759 6.9633 10.113 7.56307C9.55014 8.16284 8.78672 8.49978 7.99069 8.49978Z" fill="white"/>
</svg>
