<svg width="32" height="33" viewBox="0 0 32 33" fill="none" xmlns="http://www.w3.org/2000/svg">
<rect y="0.5" width="32" height="32" rx="16" fill="#F06C00"/>
<path d="M18.7745 17.0675C19.5101 16.4507 20.0471 15.605 20.3107 14.648C20.5742 13.691 20.5513 12.6702 20.245 11.7277C19.9388 10.7852 19.3645 9.96786 18.602 9.38937C17.8395 8.81087 16.9267 8.5 15.9907 8.5C15.0547 8.5 14.1419 8.81087 13.3794 9.38937C12.6169 9.96786 12.0426 10.7852 11.7363 11.7277C11.4301 12.6702 11.4072 13.691 11.6707 14.648C11.9343 15.605 12.4712 16.4507 13.2069 17.0675C11.9463 17.6056 10.8465 18.4981 10.0246 19.6499C9.20262 20.8017 8.68943 22.1696 8.53968 23.6077C8.52884 23.7127 8.53752 23.8189 8.56521 23.9204C8.59291 24.0218 8.63908 24.1164 8.70109 24.1988C8.82633 24.3652 9.00849 24.4718 9.2075 24.4952C9.4065 24.5185 9.60605 24.4566 9.76225 24.3232C9.91845 24.1897 10.0185 23.9956 10.0404 23.7836C10.2052 22.2206 10.9046 20.7772 12.005 19.729C13.1054 18.6807 14.5297 18.1013 16.0057 18.1013C17.4817 18.1013 18.906 18.6807 20.0064 19.729C21.1068 20.7772 21.8062 22.2206 21.971 23.7836C21.9914 23.98 22.0794 24.1615 22.218 24.2929C22.3565 24.4243 22.5359 24.4964 22.7214 24.4952H22.8039C23.0006 24.4711 23.1804 24.3651 23.3041 24.2003C23.4277 24.0356 23.4853 23.8254 23.4642 23.6157C23.3138 22.1735 22.7978 20.8021 21.9716 19.6485C21.1455 18.495 20.0403 17.6027 18.7745 17.0675ZM15.9907 16.4998C15.3971 16.4998 14.8168 16.3122 14.3232 15.9608C13.8296 15.6094 13.4449 15.1099 13.2177 14.5255C12.9906 13.9411 12.9311 13.2981 13.0469 12.6777C13.1628 12.0573 13.4486 11.4875 13.8684 11.0402C14.2881 10.5929 14.8229 10.2883 15.4051 10.1649C15.9874 10.0415 16.5908 10.1049 17.1393 10.3469C17.6877 10.589 18.1565 10.9989 18.4863 11.5248C18.8161 12.0508 18.9921 12.6691 18.9921 13.3016C18.9921 14.1498 18.6759 14.9633 18.113 15.5631C17.5501 16.1628 16.7867 16.4998 15.9907 16.4998Z" fill="white"/>
</svg>
